<?xml version="1.0" encoding="utf-8"?>
<!-- Generator: Adobe Illustrator 18.1.1, SVG Export Plug-In . SVG Version: 6.00 Build 0)  -->
<!DOCTYPE svg PUBLIC "-//W3C//DTD SVG 1.1//EN" "http://www.w3.org/Graphics/SVG/1.1/DTD/svg11.dtd">
<svg version="1.1" id="Instagram_w_x2F__circle" xmlns="http://www.w3.org/2000/svg" xmlns:xlink="http://www.w3.org/1999/xlink"
	 x="0px" y="0px" viewBox="0 0 20 20" enable-background="new 0 0 20 20" xml:space="preserve">
<path d="M13,10c0,1.657-1.343,3-3,3c-1.657,0-3-1.343-3-3c0-0.171,0.018-0.338,0.049-0.5H6v3.997C6,13.775,6.225,14,6.503,14h6.995
	C13.775,14,14,13.775,14,13.497V9.5h-1.049C12.982,9.662,13,9.829,13,10z M10,12c1.104,0,2-0.896,2-2s-0.896-2-2-2s-2,0.896-2,2
	S8.896,12,10,12z M12.4,7.9h1.199c0.166,0,0.301-0.135,0.301-0.3V6.401c0-0.166-0.135-0.301-0.301-0.301H12.4
	c-0.166,0-0.301,0.135-0.301,0.301V7.6C12.1,7.765,12.235,7.9,12.4,7.9z M10,0.4c-5.302,0-9.6,4.298-9.6,9.6
	c0,5.302,4.298,9.6,9.6,9.6c5.302,0,9.6-4.298,9.6-9.6C19.6,4.698,15.302,0.4,10,0.4z M15,13.889C15,14.5,14.5,15,13.889,15H6.111
	C5.5,15,5,14.5,5,13.889V6.111C5,5.5,5.5,5,6.111,5h7.778C14.5,5,15,5.5,15,6.111V13.889z"/>
</svg>
